<?xml version="1.0" standalone="no"?>
<!DOCTYPE svg PUBLIC "-//W3C//DTD SVG 20010904//EN"
 "http://www.w3.org/TR/2001/REC-SVG-20010904/DTD/svg10.dtd">
<svg version="1.0" xmlns="http://www.w3.org/2000/svg"
 width="2000.000000pt" height="1080.000000pt" viewBox="0 0 2000.000000 1080.000000"
 preserveAspectRatio="xMidYMid meet">

<g transform="translate(0.000000,1080.000000) scale(0.100000,-0.100000)"
fill="#000000" stroke="none">
<path d="M9730 8564 c-14 -2 -63 -9 -110 -15 -281 -35 -607 -121 -820 -215
-19 -8 -44 -19 -55 -24 -71 -29 -256 -123 -340 -173 -544 -323 -974 -789
-1246 -1352 -67 -138 -151 -352 -184 -470 -9 -33 -23 -80 -30 -105 -55 -186
-105 -574 -105 -805 0 -177 33 -483 71 -660 14 -65 78 -304 89 -330 4 -11 16
-42 25 -70 9 -27 40 -104 68 -170 291 -688 801 -1240 1471 -1590 56 -29 130
-65 166 -79 36 -15 74 -31 85 -35 11 -5 40 -16 65 -26 25 -9 56 -21 68 -26
134 -52 361 -110 587 -148 235 -41 714 -41 950 0 520 88 875 225 1294 497 430
279 818 713 1059 1187 74 145 167 368 193 460 4 17 17 62 28 100 85 291 121
552 121 890 0 280 -22 480 -82 735 -32 138 -102 364 -138 445 -5 11 -21 49
-36 85 -77 189 -256 495 -389 665 -252 322 -553 593 -877 788 -128 77 -319
173 -444 222 -66 25 -128 50 -139 55 -25 11 -199 62 -285 84 -263 65 -375 78
-725 81 -170 2 -321 1 -335 -1z m705 -234 c145 -23 229 -39 325 -64 71 -19
293 -91 325 -106 11 -5 45 -19 75 -32 122 -50 349 -173 476 -258 179 -119 302
-220 459 -377 432 -430 706 -944 825 -1543 48 -244 64 -644 35 -870 -33 -259
-86 -481 -163 -685 -113 -297 -264 -566 -454 -808 -101 -127 -372 -399 -498
-499 -314 -249 -680 -433 -1069 -539 -256 -70 -438 -93 -746 -93 -322 0 -473
19 -765 96 -712 189 -1332 646 -1735 1278 -62 98 -214 395 -248 485 -58 156
-66 180 -99 300 -37 134 -52 210 -80 385 -19 115 -22 177 -22 415 0 243 3 299
23 420 85 528 267 952 590 1380 113 149 400 432 553 546 340 252 658 404 1068
513 117 30 377 73 495 80 149 9 503 -4 630 -24z"/>
<path d="M9745 6860 c-16 -5 -72 -18 -123 -30 -245 -58 -497 -208 -681 -406
-226 -244 -346 -532 -377 -902 -11 -132 29 -383 86 -537 22 -60 89 -202 113
-239 155 -246 343 -419 592 -544 378 -189 866 -190 1245 -3 161 80 258 150
388 282 206 207 337 460 387 745 31 175 18 472 -27 614 -106 338 -305 614
-571 793 -162 109 -325 176 -527 217 -76 16 -134 20 -285 19 -104 -1 -203 -5
-220 -9z"/>
</g>
</svg>
